<svg viewBox="0 0 50 50" fill="none" xmlns="http://www.w3.org/2000/svg">
<!-- <rect width="50" height="50" /> -->
<path d="M30.1166 13L28.4606 13.625C26.5966 14.328 25.3866 15.055 24.5856 15.813C23.7846 16.57 23.4056 17.403 23.2106 18.031C23.0146 18.661 22.9366 19.027 22.8046 19.219C22.6866 19.387 22.4846 19.589 21.8346 19.781C21.8236 19.773 21.7446 19.723 21.7416 19.719H21.7106C21.2175 19.4016 20.6644 19.1889 20.0856 19.094C18.4216 18.813 16.6796 19.539 15.7106 21.094L15.6786 21.125C15.0368 22.218 14.7732 23.4921 14.9286 24.75C14.9796 25.156 15.0816 25.57 15.2416 25.969C14.499 26.0173 13.7798 26.2478 13.1475 26.6403C12.5153 27.0327 11.9895 27.575 11.6166 28.219H11.5856C10.3666 30.371 11.1086 33.149 13.2726 34.375H13.3046V34.406C13.4176 34.461 14.7496 35.164 16.7416 35.781C18.7336 36.398 21.5226 37 24.9916 37C28.4606 37 31.2456 36.422 33.2416 35.812C35.2146 35.207 36.3236 34.613 36.7106 34.375L36.7416 34.344C38.8746 33.105 39.5936 30.379 38.3666 28.281H38.3976C37.8542 27.3096 36.9597 26.583 35.8976 26.25C35.8976 26.246 35.8666 26.254 35.8666 26.25C35.713 25.6856 35.4488 25.1573 35.0893 24.6959C34.7299 24.2345 34.2823 23.849 33.7726 23.562C33.9096 23.125 33.9916 22.617 33.9916 22C33.9916 20.84 33.5776 19.863 33.0226 19.156C32.4686 18.449 31.8006 17.976 31.2416 17.531C30.6826 17.086 30.2336 16.676 29.9916 16.281C29.7496 15.887 29.6286 15.511 29.7726 14.75L30.1166 13Z"  stroke= "rgb(83, 100, 113)" stroke-width="2"
 />
</svg>
