<svg width="50" height="50" viewBox="0 0 50 50" fill="none" xmlns="http://www.w3.org/2000/svg">
	<rect width="50" height="50" fill="transparent"/>
	<circle cx="17" cy="31" r="9" fill="white" stroke="black" stroke-width="2"/>
	<path d="M45.7493 9.6622C46.1151 9.24836 46.076 8.6164 45.6622 8.25068L38.9183 2.29084C38.5045 1.92511 37.8725 1.96412 37.5068 2.37795C37.141 2.79179 37.18 3.42376 37.5939 3.78948L43.5885 9.08712L38.2908 15.0817C37.9251 15.4955 37.9641 16.1275 38.378 16.4932C38.7918 16.859 39.4238 16.82 39.7895 16.4061L45.7493 9.6622ZM16.2055 31.5538C14.6313 28.3963 14.1218 23.5838 17.667 19.3108C21.2584 14.9821 29.1877 10.9778 45.0616 9.9981L44.9384 8.0019C28.8705 8.9936 20.2488 13.0667 16.1278 18.0338C11.9605 23.0566 12.5771 28.7584 14.4156 32.4462L16.2055 31.5538Z" fill="black"/>
</svg>
