<svg width="300" height="300" viewBox="0 0 300 300" fill="none" xmlns="http://www.w3.org/2000/svg">
<rect width="300" height="300"/>
<circle cx="119" cy="149" r="50" fill="#777777"/>
<circle cx="119" cy="149" r="33.3333"  fill="white"/>
<path d="M141.875 176.333L157.667 199H119L141.875 176.333Z" fill="#777777"/>
<path d="M208.424 185.048C210.557 185.048 212.605 184.835 214.568 184.408C216.531 183.981 218.493 183.469 220.456 182.872V197.08C218.408 197.933 215.848 198.659 212.776 199.256C209.789 199.939 206.504 200.28 202.92 200.28C198.739 200.28 194.984 199.597 191.656 198.232C188.413 196.867 185.811 194.52 183.848 191.192C181.971 187.779 181.032 183.085 181.032 177.112V143.448H171.944V135.384L182.44 128.984L187.944 114.264H200.104V129.112H219.688V143.448H200.104V177.112C200.104 179.757 200.872 181.763 202.408 183.128C203.944 184.408 205.949 185.048 208.424 185.048Z" fill="#777777"/>
</svg>
