<svg width="50" height="50" viewBox="0 0 50 50" fill="none" xmlns="http://www.w3.org/2000/svg">
<rect width="50" height="50" fill="none"/>
<path d="M38.0667 19.3929H31.8507L33.2973 12.1378C33.3456 11.8892 33.2936 11.6315 33.1527 11.4215C33.0118 11.2114 32.7935 11.0661 32.546 11.0177C32.2985 10.9692 32.0419 11.0214 31.8327 11.163C31.6236 11.3045 31.4789 11.5236 31.4307 11.7722L29.9467 19.3929H22.3027L23.7493 12.1378C23.7732 12.0147 23.7728 11.8881 23.7479 11.7652C23.7231 11.6423 23.6744 11.5255 23.6047 11.4215C23.5349 11.3174 23.4454 11.2282 23.3413 11.159C23.2372 11.0897 23.1206 11.0417 22.998 11.0177C22.7505 10.9692 22.4939 11.0214 22.2847 11.163C22.0756 11.3045 21.9309 11.5236 21.8827 11.7722L20.3987 19.3929H13.8C13.5525 19.3929 13.3151 19.4917 13.14 19.6675C12.965 19.8433 12.8667 20.0817 12.8667 20.3303C12.8667 20.5789 12.965 20.8173 13.14 20.9931C13.3151 21.1689 13.5525 21.2677 13.8 21.2677H20.0253L18.532 28.7665H11.9333C11.6858 28.7665 11.4484 28.8653 11.2734 29.0411C11.0983 29.2168 11 29.4553 11 29.7039C11 29.9525 11.0983 30.1909 11.2734 30.3667C11.4484 30.5425 11.6858 30.6412 11.9333 30.6412H18.1493L16.7027 37.8964C16.6561 38.1399 16.7075 38.3921 16.8457 38.5977C16.9839 38.8033 17.1976 38.9454 17.44 38.9931C17.5019 39.0023 17.5648 39.0023 17.6267 38.9931C17.845 38.9975 18.058 38.9249 18.2285 38.7879C18.3991 38.6508 18.5164 38.4581 18.56 38.2432L20.0533 30.6412H27.6973L26.2507 37.8964C26.2041 38.1399 26.2555 38.3921 26.3937 38.5977C26.5319 38.8033 26.7456 38.9454 26.988 38.9931C27.0468 39.0022 27.1066 39.0022 27.1653 38.9931C27.3837 38.9975 27.5967 38.9249 27.7672 38.7879C27.9377 38.6508 28.055 38.4581 28.0987 38.2432L29.6013 30.6412H36.2C36.4475 30.6412 36.6849 30.5425 36.86 30.3667C37.035 30.1909 37.1333 29.9525 37.1333 29.7039C37.1333 29.4553 37.035 29.2168 36.86 29.0411C36.6849 28.8653 36.4475 28.7665 36.2 28.7665H29.9747L31.4773 21.2677H38.0667C38.3142 21.2677 38.5516 21.1689 38.7266 20.9931C38.9017 20.8173 39 20.5789 39 20.3303C39 20.0817 38.9017 19.8433 38.7266 19.6675C38.5516 19.4917 38.3142 19.3929 38.0667 19.3929ZM28.0707 28.7665H20.4267L21.9293 21.2677H29.5733L28.0707 28.7665Z" fill="black"/>
</svg>
